<?xml version="1.0" encoding="UTF-8"?>
<svg width="48px" height="48px" viewBox="0 0 48 48" version="1.1" xmlns="http://www.w3.org/2000/svg" xmlns:xlink="http://www.w3.org/1999/xlink">
    <!-- Generator: Sketch 57.1 (83088) - https://sketch.com -->
    <title>also_that</title>
    <desc>Created with Sketch.</desc>
    <g id="also_that" stroke="none" stroke-width="1" fill="none" fill-rule="evenodd">
        <rect id="Rectangle" fill="#000000" x="0" y="0" width="48" height="48" rx="6"></rect>
        <path d="M10.61,18.866 L8.452,18.866 L8.036,23 L4.63,23 L7.074,5.658 L12.04,5.658 L14.562,23 L11.104,23 L10.61,18.866 Z M8.738,15.928 L10.324,15.928 C10.09,13.718 9.752,10.338 9.57,8.674 L9.44,8.674 C9.388,9.87 8.972,13.77 8.738,15.928 Z M15.81,23 L15.81,5.658 L19.138,5.658 L19.138,20.088 L23.35,20.088 L23.038,23 L15.81,23 Z M23.896,17.644 L27.172,17.644 L27.172,18.866 C27.172,19.984 27.458,20.53 28.212,20.53 C28.992,20.53 29.174,19.75 29.174,18.918 C29.174,17.28 28.862,16.812 27.094,15.33 C25.118,13.666 24.13,12.678 24.13,10.13 C24.13,7.66 24.936,5.372 28.238,5.372 C31.722,5.372 32.242,7.764 32.242,9.74 L32.242,10.728 L29.096,10.728 L29.096,9.688 C29.096,8.648 28.914,8.128 28.264,8.128 C27.64,8.128 27.432,8.648 27.432,9.636 C27.432,10.676 27.64,11.196 29.07,12.314 C31.618,14.316 32.528,15.46 32.528,18.294 C32.528,21.024 31.592,23.26 28.16,23.26 C24.858,23.26 23.896,21.258 23.896,18.684 L23.896,17.644 Z M38.326,5.398 C41.004,5.398 42.824,6.828 42.824,10.286 L42.824,18.346 C42.824,21.778 41.212,23.26 38.17,23.26 C35.284,23.26 33.802,21.752 33.802,18.372 L33.802,10.208 C33.802,6.854 35.648,5.398 38.326,5.398 Z M38.3,8.258 C37.572,8.258 37.182,8.752 37.182,9.922 L37.182,18.788 C37.182,19.854 37.546,20.426 38.3,20.426 C39.08,20.426 39.418,19.906 39.418,18.762 L39.418,9.896 C39.418,8.804 39.132,8.258 38.3,8.258 Z M7.321,43 L7.321,28.596 L4.799,28.596 L4.799,25.658 L13.197,25.658 L13.197,28.596 L10.675,28.596 L10.675,43 L7.321,43 Z M14.393,43 L14.393,25.658 L17.721,25.658 L17.721,32.34 L19.905,32.34 L19.905,25.658 L23.259,25.658 L23.259,43 L19.905,43 L19.905,35.278 L17.721,35.278 L17.721,43 L14.393,43 Z M30.487,38.866 L28.329,38.866 L27.913,43 L24.507,43 L26.951,25.658 L31.917,25.658 L34.439,43 L30.981,43 L30.487,38.866 Z M28.615,35.928 L30.201,35.928 C29.967,33.718 29.629,30.338 29.447,28.674 L29.317,28.674 C29.265,29.87 28.849,33.77 28.615,35.928 Z M37.299,43 L37.299,28.596 L34.777,28.596 L34.777,25.658 L43.175,25.658 L43.175,28.596 L40.653,28.596 L40.653,43 L37.299,43 Z" id="ALSOTHAT" fill="#FFFFFF" fill-rule="nonzero"></path>
    </g>
</svg>