<?xml version="1.0" encoding="UTF-8"?>
<svg width="48px" height="48px" viewBox="0 0 48 48" version="1.1" xmlns="http://www.w3.org/2000/svg" xmlns:xlink="http://www.w3.org/1999/xlink">
    <!-- Generator: Sketch 57.1 (83088) - https://sketch.com -->
    <title>bruh</title>
    <desc>Created with Sketch.</desc>
    <g id="bruh" stroke="none" stroke-width="1" fill="none" fill-rule="evenodd">
        <rect id="Rectangle" fill="#000000" x="0" y="0" width="48" height="48" rx="6"></rect>
        <path d="M3.824,33 L3.824,15.658 L7.932,15.658 C10.87,15.658 12.3,16.932 12.3,19.61 L12.3,20.286 C12.3,22.652 11.416,23.38 10.61,23.692 C11.39,24.03 12.586,24.68 12.586,27.098 L12.586,28.476 C12.586,31.492 11.312,33 8.14,33 L3.824,33 Z M7.048,22.47 L7.594,22.47 C8.712,22.47 9.102,22.106 9.102,20.78 L9.102,19.896 C9.102,18.778 8.738,18.284 7.672,18.284 L7.048,18.284 L7.048,22.47 Z M7.048,25.044 L7.048,30.4 L7.724,30.4 C8.92,30.4 9.206,29.854 9.206,28.554 L9.206,26.968 C9.206,25.616 8.868,25.044 7.516,25.044 L7.048,25.044 Z M14.224,33 L14.224,15.658 L18.54,15.658 C21.452,15.658 22.882,16.932 22.882,19.948 L22.882,20.572 C22.882,23.068 21.894,23.796 21.166,24.134 C22.232,24.654 22.752,25.46 22.752,27.878 C22.752,29.542 22.726,32.09 22.856,33 L19.632,33 C19.424,32.22 19.45,29.958 19.45,27.748 C19.45,25.798 19.216,25.46 17.942,25.46 L17.552,25.46 L17.552,33 L14.224,33 Z M17.552,18.284 L17.552,22.834 L17.968,22.834 C19.086,22.834 19.554,22.47 19.554,20.858 L19.554,20.026 C19.554,18.856 19.32,18.284 18.072,18.284 L17.552,18.284 Z M24.468,15.658 L27.822,15.658 L27.822,28.866 C27.822,29.88 28.134,30.426 28.888,30.426 C29.694,30.426 29.928,29.802 29.928,28.866 L29.928,15.658 L33.308,15.658 L33.308,28.658 C33.308,31.726 31.904,33.234 28.836,33.234 C25.82,33.234 24.468,31.778 24.468,28.606 L24.468,15.658 Z M35.31,33 L35.31,15.658 L38.638,15.658 L38.638,22.34 L40.822,22.34 L40.822,15.658 L44.176,15.658 L44.176,33 L40.822,33 L40.822,25.278 L38.638,25.278 L38.638,33 L35.31,33 Z" id="BRUH" fill="#FFFFFF" fill-rule="nonzero"></path>
    </g>
</svg>