<?xml version="1.0" encoding="UTF-8"?>
<svg width="48px" height="48px" viewBox="0 0 48 48" version="1.1" xmlns="http://www.w3.org/2000/svg" xmlns:xlink="http://www.w3.org/1999/xlink">
    <!-- Generator: Sketch 57.1 (83088) - https://sketch.com -->
    <title>fam</title>
    <desc>Created with Sketch.</desc>
    <g id="fam" stroke="none" stroke-width="1" fill="none" fill-rule="evenodd">
        <rect id="Rectangle" fill="#000000" x="0" y="0" width="48" height="48" rx="6"></rect>
        <path d="M2.85,36 L2.85,11.988 L12.822,11.988 L12.822,16.056 L7.458,16.056 L7.458,21.528 L12.498,21.528 L12.498,25.632 L7.458,25.632 L7.458,36 L2.85,36 Z M21.138,30.276 L18.15,30.276 L17.574,36 L12.858,36 L16.242,11.988 L23.118,11.988 L26.61,36 L21.822,36 L21.138,30.276 Z M18.546,26.208 L20.742,26.208 C20.418,23.148 19.95,18.468 19.698,16.164 L19.518,16.164 C19.446,17.82 18.87,23.22 18.546,26.208 Z M40.722,36 L40.722,28.332 C40.722,24.624 40.758,19.368 40.83,16.416 L40.686,16.416 C40.182,21.204 39.138,30.924 38.49,36 L34.566,36 C34.026,30.744 32.982,20.844 32.478,16.344 L32.334,16.344 C32.406,19.152 32.514,24.372 32.514,28.512 L32.514,36 L28.338,36 L28.338,11.988 L34.962,11.988 C35.574,16.56 36.294,22.536 36.582,25.812 L36.654,25.812 C37.05,22.32 37.842,17.28 38.562,11.988 L45.186,11.988 L45.186,36 L40.722,36 Z" id="FAM" fill="#FFFFFF" fill-rule="nonzero"></path>
    </g>
</svg>