<?xml version="1.0" encoding="UTF-8"?>
<svg width="48px" height="48px" viewBox="0 0 48 48" version="1.1" xmlns="http://www.w3.org/2000/svg" xmlns:xlink="http://www.w3.org/1999/xlink">
    <!-- Generator: Sketch 57.1 (83088) - https://sketch.com -->
    <title>fart</title>
    <desc>Created with Sketch.</desc>
    <g id="fart" stroke="none" stroke-width="1" fill="none" fill-rule="evenodd">
        <rect id="Rectangle" fill="#FFFFFF" x="0" y="0" width="48" height="48" rx="6"></rect>
        <path d="M6.762,33 L6.762,15.658 L13.964,15.658 L13.964,18.596 L10.09,18.596 L10.09,22.548 L13.73,22.548 L13.73,25.512 L10.09,25.512 L10.09,33 L6.762,33 Z M19.71,28.866 L17.552,28.866 L17.136,33 L13.73,33 L16.174,15.658 L21.14,15.658 L23.662,33 L20.204,33 L19.71,28.866 Z M17.838,25.928 L19.424,25.928 C19.19,23.718 18.852,20.338 18.67,18.674 L18.54,18.674 C18.488,19.87 18.072,23.77 17.838,25.928 Z M24.65,33 L24.65,15.658 L28.966,15.658 C31.878,15.658 33.308,16.932 33.308,19.948 L33.308,20.572 C33.308,23.068 32.32,23.796 31.592,24.134 C32.658,24.654 33.178,25.46 33.178,27.878 C33.178,29.542 33.152,32.09 33.282,33 L30.058,33 C29.85,32.22 29.876,29.958 29.876,27.748 C29.876,25.798 29.642,25.46 28.368,25.46 L27.978,25.46 L27.978,33 L24.65,33 Z M27.978,18.284 L27.978,22.834 L28.394,22.834 C29.512,22.834 29.98,22.47 29.98,20.858 L29.98,20.026 C29.98,18.856 29.746,18.284 28.498,18.284 L27.978,18.284 Z M36.506,33 L36.506,18.596 L33.984,18.596 L33.984,15.658 L42.382,15.658 L42.382,18.596 L39.86,18.596 L39.86,33 L36.506,33 Z" id="FART" fill="#000000" fill-rule="nonzero"></path>
    </g>
</svg>