<?xml version="1.0" encoding="UTF-8"?>
<svg width="48px" height="48px" viewBox="0 0 48 48" version="1.1" xmlns="http://www.w3.org/2000/svg" xmlns:xlink="http://www.w3.org/1999/xlink">
    <!-- Generator: Sketch 57.1 (83088) - https://sketch.com -->
    <title>git</title>
    <desc>Created with Sketch.</desc>
    <g id="git" stroke="none" stroke-width="1" fill="none" fill-rule="evenodd">
        <rect id="Rectangle" fill="#000000" x="0" y="0" width="48" height="48" rx="6"></rect>
        <path d="M20.44,21.76 L20.44,37 L16.6,37 C16.48,36.52 16.4,35.6 16.36,35.04 C15.48,36.88 13.8,37.4 12.12,37.4 C8,37.4 6.8,34.32 6.8,29.96 L6.8,17.4 C6.8,13.28 8.52,9.92 13.6,9.92 C19.76,9.92 20.36,14.36 20.36,17.08 L20.36,18.28 L15.2,18.28 L15.2,16.8 C15.2,15.52 15.04,14.32 13.6,14.32 C12.44,14.32 12,15.16 12,16.92 L12,30.6 C12,32.4 12.6,33.08 13.6,33.08 C14.88,33.08 15.28,32.12 15.28,29.92 L15.28,26.08 L13.52,26.08 L13.52,21.76 L20.44,21.76 Z M23.04,10.32 L28.16,10.32 L28.16,37 L23.04,37 L23.04,10.32 Z M33.48,37 L33.48,14.84 L29.6,14.84 L29.6,10.32 L42.52,10.32 L42.52,14.84 L38.64,14.84 L38.64,37 L33.48,37 Z" id="GIT" fill="#FFFFFF" fill-rule="nonzero"></path>
    </g>
</svg>