<?xml version="1.0" encoding="UTF-8"?>
<svg width="48px" height="48px" viewBox="0 0 48 48" version="1.1" xmlns="http://www.w3.org/2000/svg" xmlns:xlink="http://www.w3.org/1999/xlink">
    <!-- Generator: Sketch 57.1 (83088) - https://sketch.com -->
    <title>go</title>
    <desc>Created with Sketch.</desc>
    <g id="go" stroke="none" stroke-width="1" fill="none" fill-rule="evenodd">
        <rect id="Rectangle" fill="#008000" x="0" y="0" width="48" height="48" rx="6"></rect>
        <path d="M22.6,21.76 L22.6,37 L18.76,37 C18.64,36.52 18.56,35.6 18.52,35.04 C17.64,36.88 15.96,37.4 14.28,37.4 C10.16,37.4 8.96,34.32 8.96,29.96 L8.96,17.4 C8.96,13.28 10.68,9.92 15.76,9.92 C21.92,9.92 22.52,14.36 22.52,17.08 L22.52,18.28 L17.36,18.28 L17.36,16.8 C17.36,15.52 17.2,14.32 15.76,14.32 C14.6,14.32 14.16,15.16 14.16,16.92 L14.16,30.6 C14.16,32.4 14.76,33.08 15.76,33.08 C17.04,33.08 17.44,32.12 17.44,29.92 L17.44,26.08 L15.68,26.08 L15.68,21.76 L22.6,21.76 Z M32.12,9.92 C36.24,9.92 39.04,12.12 39.04,17.44 L39.04,29.84 C39.04,35.12 36.56,37.4 31.88,37.4 C27.44,37.4 25.16,35.08 25.16,29.88 L25.16,17.32 C25.16,12.16 28,9.92 32.12,9.92 Z M32.08,14.32 C30.96,14.32 30.36,15.08 30.36,16.88 L30.36,30.52 C30.36,32.16 30.92,33.04 32.08,33.04 C33.28,33.04 33.8,32.24 33.8,30.48 L33.8,16.84 C33.8,15.16 33.36,14.32 32.08,14.32 Z" id="GO" fill="#FFFFFF" fill-rule="nonzero"></path>
    </g>
</svg>