<?xml version="1.0" encoding="UTF-8"?>
<svg width="48px" height="48px" viewBox="0 0 48 48" version="1.1" xmlns="http://www.w3.org/2000/svg" xmlns:xlink="http://www.w3.org/1999/xlink">
    <!-- Generator: Sketch 57.1 (83088) - https://sketch.com -->
    <title>hacked</title>
    <desc>Created with Sketch.</desc>
    <g id="hacked" stroke="none" stroke-width="1" fill="none" fill-rule="evenodd">
        <rect id="Rectangle" fill="#000000" x="0" y="0" width="48" height="48" rx="6"></rect>
        <path d="M2.03230769,31 L2.03230769,17.66 L4.59230769,17.66 L4.59230769,22.8 L6.27230769,22.8 L6.27230769,17.66 L8.85230769,17.66 L8.85230769,31 L6.27230769,31 L6.27230769,25.06 L4.59230769,25.06 L4.59230769,31 L2.03230769,31 Z M14.1815385,27.82 L12.5215385,27.82 L12.2015385,31 L9.58153846,31 L11.4615385,17.66 L15.2815385,17.66 L17.2215385,31 L14.5615385,31 L14.1815385,27.82 Z M12.7415385,25.56 L13.9615385,25.56 C13.7815385,23.86 13.5215385,21.26 13.3815385,19.98 L13.2815385,19.98 C13.2415385,20.9 12.9215385,23.9 12.7415385,25.56 Z M21.8107692,26.64 L24.4107692,26.64 L24.4107692,27.36 C24.4107692,29.04 24.0907692,31.2 21.0307692,31.2 C18.7707692,31.2 17.7907692,30 17.7907692,27.54 L17.7907692,21 C17.7907692,18.68 18.9507692,17.46 21.0907692,17.46 C23.9107692,17.46 24.3707692,19.3 24.3707692,21.06 L24.3707692,21.9 L21.7907692,21.9 L21.7907692,20.76 C21.7907692,20.02 21.6307692,19.64 21.0907692,19.64 C20.5707692,19.64 20.3907692,20 20.3907692,20.76 L20.3907692,27.82 C20.3907692,28.52 20.5107692,29.02 21.0907692,29.02 C21.6507692,29.02 21.8107692,28.6 21.8107692,27.76 L21.8107692,26.64 Z M25.28,31 L25.28,17.66 L27.76,17.66 L27.76,23.46 L27.8,23.46 C28.22,22.22 29.1,19.48 29.7,17.66 L32.54,17.66 L30.3,22.82 L32.62,31 L29.84,31 L28.52,25.38 L27.76,27.08 L27.76,31 L25.28,31 Z M38.3492308,22.84 L38.3492308,25.1 L35.6092308,25.1 L35.6092308,28.74 L38.8292308,28.74 L38.5292308,31 L33.0292308,31 L33.0292308,17.66 L38.5092308,17.66 L38.5092308,19.92 L35.6092308,19.92 L35.6092308,22.84 L38.3492308,22.84 Z M39.5584615,31 L39.5584615,17.66 L42.7184615,17.66 C45.4584615,17.66 46.3984615,18.9 46.3984615,21.66 L46.3984615,26.68 C46.3984615,28.98 45.9184615,31 42.8784615,31 L39.5584615,31 Z M42.1184615,19.74 L42.1184615,28.94 L42.6184615,28.94 C43.6384615,28.94 43.7984615,28.28 43.7984615,27.24 L43.7984615,21.26 C43.7984615,20.28 43.5784615,19.74 42.5984615,19.74 L42.1184615,19.74 Z" id="HACKED" fill="#00FF00" fill-rule="nonzero"></path>
    </g>
</svg>