<?xml version="1.0" encoding="UTF-8"?>
<svg width="48px" height="48px" viewBox="0 0 48 48" version="1.1" xmlns="http://www.w3.org/2000/svg" xmlns:xlink="http://www.w3.org/1999/xlink">
    <!-- Generator: Sketch 57.1 (83088) - https://sketch.com -->
    <title>hell_yeah</title>
    <desc>Created with Sketch.</desc>
    <g id="hell_yeah" stroke="none" stroke-width="1" fill="none" fill-rule="evenodd">
        <rect id="Rectangle" fill="#000000" x="0" y="0" width="48" height="48" rx="6"></rect>
        <path d="M6.502,23 L6.502,5.658 L9.83,5.658 L9.83,12.34 L12.014,12.34 L12.014,5.658 L15.368,5.658 L15.368,23 L12.014,23 L12.014,15.278 L9.83,15.278 L9.83,23 L6.502,23 Z M24.338,12.392 L24.338,15.33 L20.776,15.33 L20.776,20.062 L24.962,20.062 L24.572,23 L17.422,23 L17.422,5.658 L24.546,5.658 L24.546,8.596 L20.776,8.596 L20.776,12.392 L24.338,12.392 Z M26.21,23 L26.21,5.658 L29.538,5.658 L29.538,20.088 L33.75,20.088 L33.438,23 L26.21,23 Z M34.894,23 L34.894,5.658 L38.222,5.658 L38.222,20.088 L42.434,20.088 L42.122,23 L34.894,23 Z M10.623,43 L7.295,43 L7.295,37.436 C7.295,37.15 7.243,36.838 7.165,36.552 L4.123,25.658 L7.763,25.658 C8.231,28.154 8.777,31.04 8.985,33.224 L9.089,33.224 C9.375,31.144 9.921,28.206 10.389,25.658 L13.821,25.658 L10.701,36.812 C10.649,37.046 10.623,37.202 10.623,37.566 L10.623,43 Z M21.621,32.392 L21.621,35.33 L18.059,35.33 L18.059,40.062 L22.245,40.062 L21.855,43 L14.705,43 L14.705,25.658 L21.829,25.658 L21.829,28.596 L18.059,28.596 L18.059,32.392 L21.621,32.392 Z M28.641,38.866 L26.483,38.866 L26.067,43 L22.661,43 L25.105,25.658 L30.071,25.658 L32.593,43 L29.135,43 L28.641,38.866 Z M26.769,35.928 L28.355,35.928 C28.121,33.718 27.783,30.338 27.601,28.674 L27.471,28.674 C27.419,29.87 27.003,33.77 26.769,35.928 Z M33.841,43 L33.841,25.658 L37.169,25.658 L37.169,32.34 L39.353,32.34 L39.353,25.658 L42.707,25.658 L42.707,43 L39.353,43 L39.353,35.278 L37.169,35.278 L37.169,43 L33.841,43 Z" id="HELLYEAH" fill="#FFFFFF" fill-rule="nonzero"></path>
    </g>
</svg>