<?xml version="1.0" encoding="UTF-8"?>
<svg width="48px" height="48px" viewBox="0 0 48 48" version="1.1" xmlns="http://www.w3.org/2000/svg" xmlns:xlink="http://www.w3.org/1999/xlink">
    <!-- Generator: Sketch 57.1 (83088) - https://sketch.com -->
    <title>i_wasnt_gonna</title>
    <desc>Created with Sketch.</desc>
    <g id="i_wasnt_gonna" stroke="none" stroke-width="1" fill="none" fill-rule="evenodd">
        <rect id="Rectangle" fill="#000000" x="0" y="0" width="48" height="48" rx="6"></rect>
        <path d="M1.275,9.994 L3.579,9.994 L3.579,22 L1.275,22 L1.275,9.994 Z M10.599,22 L8.187,22 L6.819,9.994 L9.267,9.994 C9.429,12.136 9.681,16.204 9.735,18.094 L9.807,18.094 C10.059,15.754 10.347,12.478 10.599,9.994 L12.579,9.994 C12.831,12.334 13.101,15.556 13.335,18.058 L13.425,18.058 C13.533,15.826 13.749,11.974 13.911,9.994 L16.197,9.994 L14.667,22 L12.273,22 C12.039,19.894 11.733,17.572 11.535,15.088 L11.445,15.088 C11.211,17.518 10.851,19.822 10.599,22 Z M20.283,19.138 L18.789,19.138 L18.501,22 L16.143,22 L17.835,9.994 L21.273,9.994 L23.019,22 L20.625,22 L20.283,19.138 Z M18.987,17.104 L20.085,17.104 C19.923,15.574 19.689,13.234 19.563,12.082 L19.473,12.082 C19.437,12.91 19.149,15.61 18.987,17.104 Z M23.649,18.292 L25.917,18.292 L25.917,19.138 C25.917,19.912 26.115,20.29 26.637,20.29 C27.177,20.29 27.303,19.75 27.303,19.174 C27.303,18.04 27.087,17.716 25.863,16.69 C24.495,15.538 23.811,14.854 23.811,13.09 C23.811,11.38 24.369,9.796 26.655,9.796 C29.067,9.796 29.427,11.452 29.427,12.82 L29.427,13.504 L27.249,13.504 L27.249,12.784 C27.249,12.064 27.123,11.704 26.673,11.704 C26.241,11.704 26.097,12.064 26.097,12.748 C26.097,13.468 26.241,13.828 27.231,14.602 C28.995,15.988 29.625,16.78 29.625,18.742 C29.625,20.632 28.977,22.18 26.601,22.18 C24.315,22.18 23.649,20.794 23.649,19.012 L23.649,18.292 Z M32.757,22 L30.651,22 L30.651,9.994 L33.207,9.994 L34.449,15.268 C34.629,15.988 34.791,16.888 34.881,17.428 L34.935,17.428 C34.809,15.826 34.737,13.648 34.737,11.956 L34.737,9.994 L36.879,9.994 L36.879,22 L34.287,22 L32.991,16.024 C32.865,15.43 32.739,14.638 32.649,14.26 L32.595,14.26 C32.685,15.664 32.757,18.058 32.757,19.948 L32.757,22 Z M39.615,13.9 L37.995,13.9 C38.373,12.352 38.571,10.66 38.571,9.454 L40.623,9.454 C40.569,11.128 40.065,13 39.615,13.9 Z M43.269,22 L43.269,12.028 L41.523,12.028 L41.523,9.994 L47.337,9.994 L47.337,12.028 L45.591,12.028 L45.591,22 L43.269,22 Z M12.075,33.142 L12.075,40 L10.347,40 C10.293,39.784 10.257,39.37 10.239,39.118 C9.843,39.946 9.087,40.18 8.331,40.18 C6.477,40.18 5.937,38.794 5.937,36.832 L5.937,31.18 C5.937,29.326 6.711,27.814 8.997,27.814 C11.769,27.814 12.039,29.812 12.039,31.036 L12.039,31.576 L9.717,31.576 L9.717,30.91 C9.717,30.334 9.645,29.794 8.997,29.794 C8.475,29.794 8.277,30.172 8.277,30.964 L8.277,37.12 C8.277,37.93 8.547,38.236 8.997,38.236 C9.573,38.236 9.753,37.804 9.753,36.814 L9.753,35.086 L8.961,35.086 L8.961,33.142 L12.075,33.142 Z M16.449,27.814 C18.303,27.814 19.563,28.804 19.563,31.198 L19.563,36.778 C19.563,39.154 18.447,40.18 16.341,40.18 C14.343,40.18 13.317,39.136 13.317,36.796 L13.317,31.144 C13.317,28.822 14.595,27.814 16.449,27.814 Z M16.431,29.794 C15.927,29.794 15.657,30.136 15.657,30.946 L15.657,37.084 C15.657,37.822 15.909,38.218 16.431,38.218 C16.971,38.218 17.205,37.858 17.205,37.066 L17.205,30.928 C17.205,30.172 17.007,29.794 16.431,29.794 Z M22.911,40 L20.805,40 L20.805,27.994 L23.361,27.994 L24.603,33.268 C24.783,33.988 24.945,34.888 25.035,35.428 L25.089,35.428 C24.963,33.826 24.891,31.648 24.891,29.956 L24.891,27.994 L27.033,27.994 L27.033,40 L24.441,40 L23.145,34.024 C23.019,33.43 22.893,32.638 22.803,32.26 L22.749,32.26 C22.839,33.664 22.911,36.058 22.911,37.948 L22.911,40 Z M30.579,40 L28.473,40 L28.473,27.994 L31.029,27.994 L32.271,33.268 C32.451,33.988 32.613,34.888 32.703,35.428 L32.757,35.428 C32.631,33.826 32.559,31.648 32.559,29.956 L32.559,27.994 L34.701,27.994 L34.701,40 L32.109,40 L30.813,34.024 C30.687,33.43 30.561,32.638 30.471,32.26 L30.417,32.26 C30.507,33.664 30.579,36.058 30.579,37.948 L30.579,40 Z M39.705,37.138 L38.211,37.138 L37.923,40 L35.565,40 L37.257,27.994 L40.695,27.994 L42.441,40 L40.047,40 L39.705,37.138 Z M38.409,35.104 L39.507,35.104 C39.345,33.574 39.111,31.234 38.985,30.082 L38.895,30.082 C38.859,30.91 38.571,33.61 38.409,35.104 Z" id="IWASN’TGONNA" fill="#FFFFFF" fill-rule="nonzero"></path>
    </g>
</svg>