<?xml version="1.0" encoding="UTF-8"?>
<svg width="48px" height="48px" viewBox="0 0 48 48" version="1.1" xmlns="http://www.w3.org/2000/svg" xmlns:xlink="http://www.w3.org/1999/xlink">
    <!-- Generator: Sketch 57.1 (83088) - https://sketch.com -->
    <title>lbr</title>
    <desc>Created with Sketch.</desc>
    <g id="lbr" stroke="none" stroke-width="1" fill="none" fill-rule="evenodd">
        <rect id="Rectangle" fill="#000000" x="0" y="0" width="48" height="48" rx="6"></rect>
        <path d="M3.15769231,22 L3.15769231,8.66 L5.71769231,8.66 L5.71769231,19.76 L8.95769231,19.76 L8.71769231,22 L3.15769231,22 Z M14.8069231,13.84 L14.8069231,16.1 L12.0669231,16.1 L12.0669231,19.74 L15.2869231,19.74 L14.9869231,22 L9.48692308,22 L9.48692308,8.66 L14.9669231,8.66 L14.9669231,10.92 L12.0669231,10.92 L12.0669231,13.84 L14.8069231,13.84 Z M17.4761538,22 L17.4761538,10.92 L15.5361538,10.92 L15.5361538,8.66 L21.9961538,8.66 L21.9961538,10.92 L20.0561538,10.92 L20.0561538,22 L17.4761538,22 Z M22.2253846,17.88 L24.7453846,17.88 L24.7453846,18.82 C24.7453846,19.68 24.9653846,20.1 25.5453846,20.1 C26.1453846,20.1 26.2853846,19.5 26.2853846,18.86 C26.2853846,17.6 26.0453846,17.24 24.6853846,16.1 C23.1653846,14.82 22.4053846,14.06 22.4053846,12.1 C22.4053846,10.2 23.0253846,8.44 25.5653846,8.44 C28.2453846,8.44 28.6453846,10.28 28.6453846,11.8 L28.6453846,12.56 L26.2253846,12.56 L26.2253846,11.76 C26.2253846,10.96 26.0853846,10.56 25.5853846,10.56 C25.1053846,10.56 24.9453846,10.96 24.9453846,11.72 C24.9453846,12.52 25.1053846,12.92 26.2053846,13.78 C28.1653846,15.32 28.8653846,16.2 28.8653846,18.38 C28.8653846,20.48 28.1453846,22.2 25.5053846,22.2 C22.9653846,22.2 22.2253846,20.66 22.2253846,18.68 L22.2253846,17.88 Z M32.1638462,22 L32.1638462,8.66 L35.3238462,8.66 C37.5838462,8.66 38.6838462,9.64 38.6838462,11.7 L38.6838462,12.22 C38.6838462,14.04 38.0038462,14.6 37.3838462,14.84 C37.9838462,15.1 38.9038462,15.6 38.9038462,17.46 L38.9038462,18.52 C38.9038462,20.84 37.9238462,22 35.4838462,22 L32.1638462,22 Z M34.6438462,13.9 L35.0638462,13.9 C35.9238462,13.9 36.2238462,13.62 36.2238462,12.6 L36.2238462,11.92 C36.2238462,11.06 35.9438462,10.68 35.1238462,10.68 L34.6438462,10.68 L34.6438462,13.9 Z M34.6438462,15.88 L34.6438462,20 L35.1638462,20 C36.0838462,20 36.3038462,19.58 36.3038462,18.58 L36.3038462,17.36 C36.3038462,16.32 36.0438462,15.88 35.0038462,15.88 L34.6438462,15.88 Z M45.2330769,13.84 L45.2330769,16.1 L42.4930769,16.1 L42.4930769,19.74 L45.7130769,19.74 L45.4130769,22 L39.9130769,22 L39.9130769,8.66 L45.3930769,8.66 L45.3930769,10.92 L42.4930769,10.92 L42.4930769,13.84 L45.2330769,13.84 Z M10.3815385,42 L10.3815385,28.66 L13.7015385,28.66 C15.9415385,28.66 17.0415385,29.64 17.0415385,31.96 L17.0415385,32.44 C17.0415385,34.36 16.2815385,34.92 15.7215385,35.18 C16.5415385,35.58 16.9415385,36.2 16.9415385,38.06 C16.9415385,39.34 16.9215385,41.3 17.0215385,42 L14.5415385,42 C14.3815385,41.4 14.4015385,39.66 14.4015385,37.96 C14.4015385,36.46 14.2215385,36.2 13.2415385,36.2 L12.9415385,36.2 L12.9415385,42 L10.3815385,42 Z M12.9415385,30.68 L12.9415385,34.18 L13.2615385,34.18 C14.1215385,34.18 14.4815385,33.9 14.4815385,32.66 L14.4815385,32.02 C14.4815385,31.12 14.3015385,30.68 13.3415385,30.68 L12.9415385,30.68 Z M23.5107692,33.84 L23.5107692,36.1 L20.7707692,36.1 L20.7707692,39.74 L23.9907692,39.74 L23.6907692,42 L18.1907692,42 L18.1907692,28.66 L23.6707692,28.66 L23.6707692,30.92 L20.7707692,30.92 L20.7707692,33.84 L23.5107692,33.84 Z M29,38.82 L27.34,38.82 L27.02,42 L24.4,42 L26.28,28.66 L30.1,28.66 L32.04,42 L29.38,42 L29,38.82 Z M27.56,36.56 L28.78,36.56 C28.6,34.86 28.34,32.26 28.2,30.98 L28.1,30.98 C28.06,31.9 27.74,34.9 27.56,36.56 Z M32.7692308,42 L32.7692308,28.66 L35.3292308,28.66 L35.3292308,39.76 L38.5692308,39.76 L38.3292308,42 L32.7692308,42 Z" id="LETSBEREAL" fill="#FFFFFF" fill-rule="nonzero"></path>
    </g>
</svg>