<?xml version="1.0" encoding="UTF-8"?>
<svg width="48px" height="48px" viewBox="0 0 48 48" version="1.1" xmlns="http://www.w3.org/2000/svg" xmlns:xlink="http://www.w3.org/1999/xlink">
    <!-- Generator: Sketch 57.1 (83088) - https://sketch.com -->
    <title>lewd</title>
    <desc>Created with Sketch.</desc>
    <g id="lewd" stroke="none" stroke-width="1" fill="none" fill-rule="evenodd">
        <rect id="Rectangle" fill="#000000" x="0" y="0" width="48" height="48" rx="6"></rect>
        <path d="M3.902,33 L3.902,15.658 L7.23,15.658 L7.23,30.088 L11.442,30.088 L11.13,33 L3.902,33 Z M19.476,22.392 L19.476,25.33 L15.914,25.33 L15.914,30.062 L20.1,30.062 L19.71,33 L12.56,33 L12.56,15.658 L19.684,15.658 L19.684,18.596 L15.914,18.596 L15.914,22.392 L19.476,22.392 Z M26.054,33 L22.57,33 L20.594,15.658 L24.13,15.658 C24.364,18.752 24.728,24.628 24.806,27.358 L24.91,27.358 C25.274,23.978 25.69,19.246 26.054,15.658 L28.914,15.658 C29.278,19.038 29.668,23.692 30.006,27.306 L30.136,27.306 C30.292,24.082 30.604,18.518 30.838,15.658 L34.14,15.658 L31.93,33 L28.472,33 C28.134,29.958 27.692,26.604 27.406,23.016 L27.276,23.016 C26.938,26.526 26.418,29.854 26.054,33 Z M35.466,33 L35.466,15.658 L39.574,15.658 C43.136,15.658 44.358,17.27 44.358,20.858 L44.358,27.384 C44.358,30.374 43.734,33 39.782,33 L35.466,33 Z M38.794,18.362 L38.794,30.322 L39.444,30.322 C40.77,30.322 40.978,29.464 40.978,28.112 L40.978,20.338 C40.978,19.064 40.692,18.362 39.418,18.362 L38.794,18.362 Z" id="LEWD" fill="#FFFFFF" fill-rule="nonzero"></path>
    </g>
</svg>