<?xml version="1.0" encoding="UTF-8"?>
<svg width="48px" height="48px" viewBox="0 0 48 48" version="1.1" xmlns="http://www.w3.org/2000/svg" xmlns:xlink="http://www.w3.org/1999/xlink">
    <!-- Generator: Sketch 57.1 (83088) - https://sketch.com -->
    <title>maybe</title>
    <desc>Created with Sketch.</desc>
    <g id="maybe" stroke="none" stroke-width="1" fill="none" fill-rule="evenodd">
        <rect id="Rectangle" fill="#FFC800" x="0" y="0" width="48" height="48" rx="6"></rect>
        <path d="M10.437,31 L10.437,26.314 C10.437,24.048 10.459,20.836 10.503,19.032 L10.415,19.032 C10.107,21.958 9.469,27.898 9.073,31 L6.675,31 C6.345,27.788 5.707,21.738 5.399,18.988 L5.311,18.988 C5.355,20.704 5.421,23.894 5.421,26.424 L5.421,31 L2.869,31 L2.869,16.326 L6.917,16.326 C7.291,19.12 7.731,22.772 7.907,24.774 L7.951,24.774 C8.193,22.64 8.677,19.56 9.117,16.326 L13.165,16.326 L13.165,31 L10.437,31 Z M19.171,27.502 L17.345,27.502 L16.993,31 L14.111,31 L16.179,16.326 L20.381,16.326 L22.515,31 L19.589,31 L19.171,27.502 Z M17.587,25.016 L18.929,25.016 C18.731,23.146 18.445,20.286 18.291,18.878 L18.181,18.878 C18.137,19.89 17.785,23.19 17.587,25.016 Z M27.201,31 L24.385,31 L24.385,26.292 C24.385,26.05 24.341,25.786 24.275,25.544 L21.701,16.326 L24.781,16.326 C25.177,18.438 25.639,20.88 25.815,22.728 L25.903,22.728 C26.145,20.968 26.607,18.482 27.003,16.326 L29.907,16.326 L27.267,25.764 C27.223,25.962 27.201,26.094 27.201,26.402 L27.201,31 Z M30.677,31 L30.677,16.326 L34.153,16.326 C36.639,16.326 37.849,17.404 37.849,19.67 L37.849,20.242 C37.849,22.244 37.101,22.86 36.419,23.124 C37.079,23.41 38.091,23.96 38.091,26.006 L38.091,27.172 C38.091,29.724 37.013,31 34.329,31 L30.677,31 Z M33.405,22.09 L33.867,22.09 C34.813,22.09 35.143,21.782 35.143,20.66 L35.143,19.912 C35.143,18.966 34.835,18.548 33.933,18.548 L33.405,18.548 L33.405,22.09 Z M33.405,24.268 L33.405,28.8 L33.977,28.8 C34.989,28.8 35.231,28.338 35.231,27.238 L35.231,25.896 C35.231,24.752 34.945,24.268 33.801,24.268 L33.405,24.268 Z M45.307,22.024 L45.307,24.51 L42.293,24.51 L42.293,28.514 L45.835,28.514 L45.505,31 L39.455,31 L39.455,16.326 L45.483,16.326 L45.483,18.812 L42.293,18.812 L42.293,22.024 L45.307,22.024 Z" id="MAYBE" fill="#000000" fill-rule="nonzero"></path>
    </g>
</svg>