<?xml version="1.0" encoding="UTF-8"?>
<svg width="48px" height="48px" viewBox="0 0 48 48" version="1.1" xmlns="http://www.w3.org/2000/svg" xmlns:xlink="http://www.w3.org/1999/xlink">
    <!-- Generator: Sketch 57.1 (83088) - https://sketch.com -->
    <title>money_please</title>
    <desc>Created with Sketch.</desc>
    <g id="money_please" stroke="none" stroke-width="1" fill="none" fill-rule="evenodd">
        <rect id="Rectangle" fill="#000000" x="0" y="0" width="48" height="48" rx="6"></rect>
        <path d="M11.55,21 L12.67,15.78 C13.17,13.42 13.75,10.82 14.13,9.34 L14.11,9.34 C13.31,11.62 11.31,17.08 9.87,21 L8.21,21 C8.47,17.54 8.85,11.72 9.07,9.32 L9.03,9.32 C8.73,10.88 8.11,13.76 7.63,16.06 L6.65,21 L5.01,21 L7.85,7.64 L10.49,7.64 C10.23,11.66 9.99,15.64 9.79,17.44 L9.81,17.44 C10.41,15.66 12.25,10.78 13.51,7.64 L16.11,7.64 L13.27,21 L11.55,21 Z M20.01,7.46 C22.11,7.46 23.01,8.9 22.53,11.2 L21.17,17.6 C20.69,19.84 19.97,21.18 17.67,21.18 C15.37,21.18 14.75,19.66 15.21,17.44 L16.61,10.76 C17.07,8.56 18.15,7.46 20.01,7.46 Z M19.85,8.98 C19.09,8.98 18.65,9.6 18.41,10.76 L16.95,17.72 C16.69,18.88 16.85,19.68 17.85,19.68 C18.69,19.68 19.09,19 19.35,17.78 L20.81,10.86 C21.05,9.7 20.81,8.98 19.85,8.98 Z M23.31,21 L21.63,21 L24.47,7.64 L26.55,7.64 L26.81,14.88 C26.87,16.24 26.89,17 26.87,17.52 L26.89,17.52 C27.19,15.72 27.53,13.82 27.99,11.64 L28.85,7.64 L30.51,7.64 L27.67,21 L25.65,21 L25.39,13.86 C25.33,12.54 25.29,11.28 25.31,10.9 L25.29,10.9 C25.03,12.56 24.69,14.46 24.17,16.88 L23.31,21 Z M35.35,13.08 L34.99,14.68 L32.13,14.68 L31.15,19.4 L34.59,19.4 L34.01,21 L29.05,21 L31.89,7.64 L36.67,7.64 L36.31,9.24 L33.29,9.24 L32.47,13.08 L35.35,13.08 Z M38.29,21 L36.55,21 L37.59,16.12 C37.61,15.94 37.63,15.74 37.61,15.58 L36.79,7.64 L38.57,7.64 C38.71,9.46 38.91,12.96 38.91,13.9 L38.93,13.9 C39.47,12.66 40.83,9.76 41.85,7.64 L43.69,7.64 L39.45,15.82 C39.39,15.94 39.35,16.06 39.31,16.3 L38.29,21 Z M40.17,22.76 L38.79,22.76 C39.77,21.24 40.39,19.88 40.77,18.12 L42.41,18.12 C42.11,19.74 41.23,21.68 40.17,22.76 Z M3.42,41 L6.26,27.64 L8.66,27.64 C10.8,27.64 11.62,28.96 11.2,31.1 L11.02,32.02 C10.6,34.12 9.76,35.18 7.24,35.18 L6.4,35.18 L5.16,41 L3.42,41 Z M7.68,29.12 L6.72,33.72 L7.46,33.72 C8.68,33.72 9,33.1 9.26,31.92 L9.44,31.12 C9.66,30.02 9.66,29.12 8.42,29.12 L7.68,29.12 Z M9.96,41 L12.8,27.64 L14.56,27.64 L12.06,39.4 L15.36,39.4 L14.88,41 L9.96,41 Z M21.7,33.08 L21.34,34.68 L18.48,34.68 L17.5,39.4 L20.94,39.4 L20.36,41 L15.4,41 L18.24,27.64 L23.02,27.64 L22.66,29.24 L19.64,29.24 L18.82,33.08 L21.7,33.08 Z M26.18,37.1 L24.08,37.1 L22.72,41 L20.88,41 C21.36,39.72 25.24,29.06 25.78,27.64 L28.4,27.64 L27.7,41 L25.94,41 L26.18,37.1 Z M24.64,35.48 L26.28,35.48 C26.44,33.22 26.6,30.62 26.72,29.26 L26.64,29.26 C26.36,30.36 25.4,33.24 24.64,35.48 Z M28.62,37.48 L30.38,37.48 L30.32,37.84 C30.1,39.06 30.32,39.72 31.24,39.72 C32.02,39.72 32.44,39.1 32.66,37.96 C32.9,36.66 32.74,35.88 31.52,34.48 C30.14,32.92 29.72,32.04 30.08,30.2 C30.4,28.42 31.34,27.46 33,27.46 C35.44,27.46 35.74,29.24 35.46,30.86 L35.42,31.16 L33.66,31.16 L33.72,30.86 C33.88,29.84 33.88,28.94 32.96,28.94 C32.26,28.94 31.94,29.44 31.78,30.32 C31.62,31.34 31.8,32 32.76,33.1 C34.44,35.02 34.8,36.18 34.42,38.12 C34.02,40.04 33.06,41.18 31.08,41.18 C28.82,41.18 28.16,39.76 28.56,37.7 L28.62,37.48 Z M40.98,33.08 L40.62,34.68 L37.76,34.68 L36.78,39.4 L40.22,39.4 L39.64,41 L34.68,41 L37.52,27.64 L42.3,27.64 L41.94,29.24 L38.92,29.24 L38.1,33.08 L40.98,33.08 Z M43.8,36.44 L42.28,36.44 L43.54,29.7 L44.02,27.44 L45.88,27.44 L45.4,29.7 L43.8,36.44 Z M42.92,41 L41.22,41 L41.74,38.58 L43.44,38.58 L42.92,41 Z" id="MONEY,PLEASE!" fill="#FFFFFF" fill-rule="nonzero"></path>
    </g>
</svg>