<?xml version="1.0" encoding="UTF-8"?>
<svg width="48px" height="48px" viewBox="0 0 48 48" version="1.1" xmlns="http://www.w3.org/2000/svg" xmlns:xlink="http://www.w3.org/1999/xlink">
    <!-- Generator: Sketch 57.1 (83088) - https://sketch.com -->
    <title>nah_dawg</title>
    <desc>Created with Sketch.</desc>
    <g id="nah_dawg" stroke="none" stroke-width="1" fill="none" fill-rule="evenodd">
        <rect id="Rectangle" fill="#000000" x="0" y="0" width="48" height="48" rx="6"></rect>
        <path d="M12.347,23 L9.305,23 L9.305,5.658 L12.997,5.658 L14.791,13.276 C15.051,14.316 15.285,15.616 15.415,16.396 L15.493,16.396 C15.311,14.082 15.207,10.936 15.207,8.492 L15.207,5.658 L18.301,5.658 L18.301,23 L14.557,23 L12.685,14.368 C12.503,13.51 12.321,12.366 12.191,11.82 L12.113,11.82 C12.243,13.848 12.347,17.306 12.347,20.036 L12.347,23 Z M25.229,18.866 L23.071,18.866 L22.655,23 L19.249,23 L21.693,5.658 L26.659,5.658 L29.181,23 L25.723,23 L25.229,18.866 Z M23.357,15.928 L24.943,15.928 C24.709,13.718 24.371,10.338 24.189,8.674 L24.059,8.674 C24.007,9.87 23.591,13.77 23.357,15.928 Z M30.129,23 L30.129,5.658 L33.457,5.658 L33.457,12.34 L35.641,12.34 L35.641,5.658 L38.995,5.658 L38.995,23 L35.641,23 L35.641,15.278 L33.457,15.278 L33.457,23 L30.129,23 Z M3.072,43 L3.072,25.658 L7.18,25.658 C10.742,25.658 11.964,27.27 11.964,30.858 L11.964,37.384 C11.964,40.374 11.34,43 7.388,43 L3.072,43 Z M6.4,28.362 L6.4,40.322 L7.05,40.322 C8.376,40.322 8.584,39.464 8.584,38.112 L8.584,30.338 C8.584,29.064 8.298,28.362 7.024,28.362 L6.4,28.362 Z M18.554,38.866 L16.396,38.866 L15.98,43 L12.574,43 L15.018,25.658 L19.984,25.658 L22.506,43 L19.048,43 L18.554,38.866 Z M16.682,35.928 L18.268,35.928 C18.034,33.718 17.696,30.338 17.514,28.674 L17.384,28.674 C17.332,29.87 16.916,33.77 16.682,35.928 Z M27.666,43 L24.182,43 L22.206,25.658 L25.742,25.658 C25.976,28.752 26.34,34.628 26.418,37.358 L26.522,37.358 C26.886,33.978 27.302,29.246 27.666,25.658 L30.526,25.658 C30.89,29.038 31.28,33.692 31.618,37.306 L31.748,37.306 C31.904,34.082 32.216,28.518 32.45,25.658 L35.752,25.658 L33.542,43 L30.084,43 C29.746,39.958 29.304,36.604 29.018,33.016 L28.888,33.016 C28.55,36.526 28.03,39.854 27.666,43 Z M45.358,33.094 L45.358,43 L42.862,43 C42.784,42.688 42.732,42.09 42.706,41.726 C42.134,42.922 41.042,43.26 39.95,43.26 C37.272,43.26 36.492,41.258 36.492,38.424 L36.492,30.26 C36.492,27.582 37.61,25.398 40.912,25.398 C44.916,25.398 45.306,28.284 45.306,30.052 L45.306,30.832 L41.952,30.832 L41.952,29.87 C41.952,29.038 41.848,28.258 40.912,28.258 C40.158,28.258 39.872,28.804 39.872,29.948 L39.872,38.84 C39.872,40.01 40.262,40.452 40.912,40.452 C41.744,40.452 42.004,39.828 42.004,38.398 L42.004,35.902 L40.86,35.902 L40.86,33.094 L45.358,33.094 Z" id="NAHDAWG" fill="#FFFFFF" fill-rule="nonzero"></path>
    </g>
</svg>