<?xml version="1.0" encoding="UTF-8"?>
<svg width="48px" height="48px" viewBox="0 0 48 48" version="1.1" xmlns="http://www.w3.org/2000/svg" xmlns:xlink="http://www.w3.org/1999/xlink">
    <!-- Generator: Sketch 57.1 (83088) - https://sketch.com -->
    <title>nerd</title>
    <desc>Created with Sketch.</desc>
    <g id="nerd" stroke="none" stroke-width="1" fill="none" fill-rule="evenodd">
        <rect id="Rectangle" fill="#000000" x="0" y="0" width="48" height="48" rx="6"></rect>
        <path d="M7.646,33 L4.604,33 L4.604,15.658 L8.296,15.658 L10.09,23.276 C10.35,24.316 10.584,25.616 10.714,26.396 L10.792,26.396 C10.61,24.082 10.506,20.936 10.506,18.492 L10.506,15.658 L13.6,15.658 L13.6,33 L9.856,33 L7.984,24.368 C7.802,23.51 7.62,22.366 7.49,21.82 L7.412,21.82 C7.542,23.848 7.646,27.306 7.646,30.036 L7.646,33 Z M22.57,22.392 L22.57,25.33 L19.008,25.33 L19.008,30.062 L23.194,30.062 L22.804,33 L15.654,33 L15.654,15.658 L22.778,15.658 L22.778,18.596 L19.008,18.596 L19.008,22.392 L22.57,22.392 Z M24.442,33 L24.442,15.658 L28.758,15.658 C31.67,15.658 33.1,16.932 33.1,19.948 L33.1,20.572 C33.1,23.068 32.112,23.796 31.384,24.134 C32.45,24.654 32.97,25.46 32.97,27.878 C32.97,29.542 32.944,32.09 33.074,33 L29.85,33 C29.642,32.22 29.668,29.958 29.668,27.748 C29.668,25.798 29.434,25.46 28.16,25.46 L27.77,25.46 L27.77,33 L24.442,33 Z M27.77,18.284 L27.77,22.834 L28.186,22.834 C29.304,22.834 29.772,22.47 29.772,20.858 L29.772,20.026 C29.772,18.856 29.538,18.284 28.29,18.284 L27.77,18.284 Z M34.764,33 L34.764,15.658 L38.872,15.658 C42.434,15.658 43.656,17.27 43.656,20.858 L43.656,27.384 C43.656,30.374 43.032,33 39.08,33 L34.764,33 Z M38.092,18.362 L38.092,30.322 L38.742,30.322 C40.068,30.322 40.276,29.464 40.276,28.112 L40.276,20.338 C40.276,19.064 39.99,18.362 38.716,18.362 L38.092,18.362 Z" id="NERD" fill="#FFFFFF" fill-rule="nonzero"></path>
    </g>
</svg>