<?xml version="1.0" encoding="UTF-8"?>
<svg width="48px" height="48px" viewBox="0 0 48 48" version="1.1" xmlns="http://www.w3.org/2000/svg" xmlns:xlink="http://www.w3.org/1999/xlink">
    <!-- Generator: Sketch 57.1 (83088) - https://sketch.com -->
    <title>no</title>
    <desc>Created with Sketch.</desc>
    <g id="no" stroke="none" stroke-width="1" fill="none" fill-rule="evenodd">
        <rect id="Rectangle" fill="#FF2200" x="0" y="0" width="48" height="48" rx="6"></rect>
        <path d="M13.66,37 L8.98,37 L8.98,10.32 L14.66,10.32 L17.42,22.04 C17.82,23.64 18.18,25.64 18.38,26.84 L18.5,26.84 C18.22,23.28 18.06,18.44 18.06,14.68 L18.06,10.32 L22.82,10.32 L22.82,37 L17.06,37 L14.18,23.72 C13.9,22.4 13.62,20.64 13.42,19.8 L13.3,19.8 C13.5,22.92 13.66,28.24 13.66,32.44 L13.66,37 Z M32.54,9.92 C36.66,9.92 39.46,12.12 39.46,17.44 L39.46,29.84 C39.46,35.12 36.98,37.4 32.3,37.4 C27.86,37.4 25.58,35.08 25.58,29.88 L25.58,17.32 C25.58,12.16 28.42,9.92 32.54,9.92 Z M32.5,14.32 C31.38,14.32 30.78,15.08 30.78,16.88 L30.78,30.52 C30.78,32.16 31.34,33.04 32.5,33.04 C33.7,33.04 34.22,32.24 34.22,30.48 L34.22,16.84 C34.22,15.16 33.78,14.32 32.5,14.32 Z" id="NO" fill="#FFFFFF" fill-rule="nonzero"></path>
    </g>
</svg>