<?xml version="1.0" encoding="UTF-8"?>
<svg width="48px" height="48px" viewBox="0 0 48 48" version="1.1" xmlns="http://www.w3.org/2000/svg" xmlns:xlink="http://www.w3.org/1999/xlink">
    <!-- Generator: Sketch 57.1 (83088) - https://sketch.com -->
    <title>nope</title>
    <desc>Created with Sketch.</desc>
    <g id="nope" stroke="none" stroke-width="1" fill="none" fill-rule="evenodd">
        <rect id="Rectangle" fill="#000000" x="0" y="0" width="48" height="48" rx="6"></rect>
        <path d="M7.763,33 L4.721,33 L4.721,15.658 L8.413,15.658 L10.207,23.276 C10.467,24.316 10.701,25.616 10.831,26.396 L10.909,26.396 C10.727,24.082 10.623,20.936 10.623,18.492 L10.623,15.658 L13.717,15.658 L13.717,33 L9.973,33 L8.101,24.368 C7.919,23.51 7.737,22.366 7.607,21.82 L7.529,21.82 C7.659,23.848 7.763,27.306 7.763,30.036 L7.763,33 Z M20.035,15.398 C22.713,15.398 24.533,16.828 24.533,20.286 L24.533,28.346 C24.533,31.778 22.921,33.26 19.879,33.26 C16.993,33.26 15.511,31.752 15.511,28.372 L15.511,20.208 C15.511,16.854 17.357,15.398 20.035,15.398 Z M20.009,18.258 C19.281,18.258 18.891,18.752 18.891,19.922 L18.891,28.788 C18.891,29.854 19.255,30.426 20.009,30.426 C20.789,30.426 21.127,29.906 21.127,28.762 L21.127,19.896 C21.127,18.804 20.841,18.258 20.009,18.258 Z M26.327,33 L26.327,15.658 L30.773,15.658 C33.659,15.658 35.089,17.166 35.089,20.234 L35.089,21.3 C35.089,24.342 33.945,26.188 30.643,26.188 L29.655,26.188 L29.655,33 L26.327,33 Z M29.655,18.284 L29.655,23.484 L30.201,23.484 C31.475,23.484 31.735,22.756 31.735,21.326 L31.735,20.13 C31.735,19.012 31.475,18.284 30.357,18.284 L29.655,18.284 Z M43.487,22.392 L43.487,25.33 L39.925,25.33 L39.925,30.062 L44.111,30.062 L43.721,33 L36.571,33 L36.571,15.658 L43.695,15.658 L43.695,18.596 L39.925,18.596 L39.925,22.392 L43.487,22.392 Z" id="NOPE" fill="#FFFFFF" fill-rule="nonzero"></path>
    </g>
</svg>