<?xml version="1.0" encoding="UTF-8"?>
<svg width="48px" height="48px" viewBox="0 0 48 48" version="1.1" xmlns="http://www.w3.org/2000/svg" xmlns:xlink="http://www.w3.org/1999/xlink">
    <!-- Generator: Sketch 57.1 (83088) - https://sketch.com -->
    <title>ooh_shiny</title>
    <desc>Created with Sketch.</desc>
    <defs>
        <linearGradient x1="0.572740709%" y1="0.572740709%" x2="100%" y2="100%" id="linearGradient-1">
            <stop stop-color="#4B89FF" offset="0%"></stop>
            <stop stop-color="#FFEDAC" offset="51.3249578%"></stop>
            <stop stop-color="#C26DF6" offset="100%"></stop>
        </linearGradient>
    </defs>
    <g id="ooh_shiny" stroke="none" stroke-width="1" fill="none" fill-rule="evenodd">
        <rect id="Rectangle" fill="url(#linearGradient-1)" x="0" y="0" width="48" height="48" rx="6"></rect>
        <path d="M14.4793846,5.752 C16.9513846,5.752 18.6313846,7.072 18.6313846,10.264 L18.6313846,17.704 C18.6313846,20.872 17.1433846,22.24 14.3353846,22.24 C11.6713846,22.24 10.3033846,20.848 10.3033846,17.728 L10.3033846,10.192 C10.3033846,7.096 12.0073846,5.752 14.4793846,5.752 Z M14.4553846,8.392 C13.7833846,8.392 13.4233846,8.848 13.4233846,9.928 L13.4233846,18.112 C13.4233846,19.096 13.7593846,19.624 14.4553846,19.624 C15.1753846,19.624 15.4873846,19.144 15.4873846,18.088 L15.4873846,9.904 C15.4873846,8.896 15.2233846,8.392 14.4553846,8.392 Z M23.9944615,5.752 C26.4664615,5.752 28.1464615,7.072 28.1464615,10.264 L28.1464615,17.704 C28.1464615,20.872 26.6584615,22.24 23.8504615,22.24 C21.1864615,22.24 19.8184615,20.848 19.8184615,17.728 L19.8184615,10.192 C19.8184615,7.096 21.5224615,5.752 23.9944615,5.752 Z M23.9704615,8.392 C23.2984615,8.392 22.9384615,8.848 22.9384615,9.928 L22.9384615,18.112 C22.9384615,19.096 23.2744615,19.624 23.9704615,19.624 C24.6904615,19.624 25.0024615,19.144 25.0024615,18.088 L25.0024615,9.904 C25.0024615,8.896 24.7384615,8.392 23.9704615,8.392 Z M29.5255385,22 L29.5255385,5.992 L32.5975385,5.992 L32.5975385,12.16 L34.6135385,12.16 L34.6135385,5.992 L37.7095385,5.992 L37.7095385,22 L34.6135385,22 L34.6135385,14.872 L32.5975385,14.872 L32.5975385,22 L29.5255385,22 Z M3.68030769,37.056 L6.70430769,37.056 L6.70430769,38.184 C6.70430769,39.216 6.96830769,39.72 7.66430769,39.72 C8.38430769,39.72 8.55230769,39 8.55230769,38.232 C8.55230769,36.72 8.26430769,36.288 6.63230769,34.92 C4.80830769,33.384 3.89630769,32.472 3.89630769,30.12 C3.89630769,27.84 4.64030769,25.728 7.68830769,25.728 C10.9043077,25.728 11.3843077,27.936 11.3843077,29.76 L11.3843077,30.672 L8.48030769,30.672 L8.48030769,29.712 C8.48030769,28.752 8.31230769,28.272 7.71230769,28.272 C7.13630769,28.272 6.94430769,28.752 6.94430769,29.664 C6.94430769,30.624 7.13630769,31.104 8.45630769,32.136 C10.8083077,33.984 11.6483077,35.04 11.6483077,37.656 C11.6483077,40.176 10.7843077,42.24 7.61630769,42.24 C4.56830769,42.24 3.68030769,40.392 3.68030769,38.016 L3.68030769,37.056 Z M12.7393846,42 L12.7393846,25.992 L15.8113846,25.992 L15.8113846,32.16 L17.8273846,32.16 L17.8273846,25.992 L20.9233846,25.992 L20.9233846,42 L17.8273846,42 L17.8273846,34.872 L15.8113846,34.872 L15.8113846,42 L12.7393846,42 Z M22.5664615,25.992 L25.6384615,25.992 L25.6384615,42 L22.5664615,42 L22.5664615,25.992 Z M30.1135385,42 L27.3055385,42 L27.3055385,25.992 L30.7135385,25.992 L32.3695385,33.024 C32.6095385,33.984 32.8255385,35.184 32.9455385,35.904 L33.0175385,35.904 C32.8495385,33.768 32.7535385,30.864 32.7535385,28.608 L32.7535385,25.992 L35.6095385,25.992 L35.6095385,42 L32.1535385,42 L30.4255385,34.032 C30.2575385,33.24 30.0895385,32.184 29.9695385,31.68 L29.8975385,31.68 C30.0175385,33.552 30.1135385,36.744 30.1135385,39.264 L30.1135385,42 Z M42.1726154,42 L39.1006154,42 L39.1006154,36.864 C39.1006154,36.6 39.0526154,36.312 38.9806154,36.048 L36.1726154,25.992 L39.5326154,25.992 C39.9646154,28.296 40.4686154,30.96 40.6606154,32.976 L40.7566154,32.976 C41.0206154,31.056 41.5246154,28.344 41.9566154,25.992 L45.1246154,25.992 L42.2446154,36.288 C42.1966154,36.504 42.1726154,36.648 42.1726154,36.984 L42.1726154,42 Z" id="OOHSHINY" fill="#000000" fill-rule="nonzero"></path>
    </g>
</svg>