<?xml version="1.0" encoding="UTF-8"?>
<svg width="48px" height="48px" viewBox="0 0 48 48" version="1.1" xmlns="http://www.w3.org/2000/svg" xmlns:xlink="http://www.w3.org/1999/xlink">
    <!-- Generator: Sketch 57.1 (83088) - https://sketch.com -->
    <title>pokes</title>
    <desc>Created with Sketch.</desc>
    <g id="pokes" stroke="none" stroke-width="1" fill="none" fill-rule="evenodd">
        <path d="M6,0 L42,0 C45.3137085,-6.08718376e-16 48,2.6862915 48,6 L48,24 L48,24 L0,24 L0,6 C-4.05812251e-16,2.6862915 2.6862915,6.08718376e-16 6,0 Z" id="Rectangle" fill="#FF2200"></path>
        <path d="M0,24 L48,24 L48,42 C48,45.3137085 45.3137085,48 42,48 L6,48 C2.6862915,48 4.05812251e-16,45.3137085 0,42 L0,24 L0,24 Z" id="Rectangle" fill="#FFFFFF"></path>
        <rect id="Rectangle" fill="#000000" x="0" y="21" width="48" height="6"></rect>
        <circle id="Oval" fill="#000000" cx="24" cy="24" r="12"></circle>
        <circle id="Oval" fill="#FFFFFF" cx="24" cy="24" r="6"></circle>
    </g>
</svg>