<?xml version="1.0" encoding="UTF-8"?>
<svg width="48px" height="48px" viewBox="0 0 48 48" version="1.1" xmlns="http://www.w3.org/2000/svg" xmlns:xlink="http://www.w3.org/1999/xlink">
    <!-- Generator: Sketch 57.1 (83088) - https://sketch.com -->
    <title>shots_fired</title>
    <desc>Created with Sketch.</desc>
    <g id="shots_fired" stroke="none" stroke-width="1" fill="none" fill-rule="evenodd">
        <rect id="Rectangle" fill="#000000" x="0" y="0" width="48" height="48" rx="6"></rect>
        <path d="M2.43230769,17.056 L5.45630769,17.056 L5.45630769,18.184 C5.45630769,19.216 5.72030769,19.72 6.41630769,19.72 C7.13630769,19.72 7.30430769,19 7.30430769,18.232 C7.30430769,16.72 7.01630769,16.288 5.38430769,14.92 C3.56030769,13.384 2.64830769,12.472 2.64830769,10.12 C2.64830769,7.84 3.39230769,5.728 6.44030769,5.728 C9.65630769,5.728 10.1363077,7.936 10.1363077,9.76 L10.1363077,10.672 L7.23230769,10.672 L7.23230769,9.712 C7.23230769,8.752 7.06430769,8.272 6.46430769,8.272 C5.88830769,8.272 5.69630769,8.752 5.69630769,9.664 C5.69630769,10.624 5.88830769,11.104 7.20830769,12.136 C9.56030769,13.984 10.4003077,15.04 10.4003077,17.656 C10.4003077,20.176 9.53630769,22.24 6.36830769,22.24 C3.32030769,22.24 2.43230769,20.392 2.43230769,18.016 L2.43230769,17.056 Z M11.4913846,22 L11.4913846,5.992 L14.5633846,5.992 L14.5633846,12.16 L16.5793846,12.16 L16.5793846,5.992 L19.6753846,5.992 L19.6753846,22 L16.5793846,22 L16.5793846,14.872 L14.5633846,14.872 L14.5633846,22 L11.4913846,22 Z M25.2304615,5.752 C27.7024615,5.752 29.3824615,7.072 29.3824615,10.264 L29.3824615,17.704 C29.3824615,20.872 27.8944615,22.24 25.0864615,22.24 C22.4224615,22.24 21.0544615,20.848 21.0544615,17.728 L21.0544615,10.192 C21.0544615,7.096 22.7584615,5.752 25.2304615,5.752 Z M25.2064615,8.392 C24.5344615,8.392 24.1744615,8.848 24.1744615,9.928 L24.1744615,18.112 C24.1744615,19.096 24.5104615,19.624 25.2064615,19.624 C25.9264615,19.624 26.2384615,19.144 26.2384615,18.088 L26.2384615,9.904 C26.2384615,8.896 25.9744615,8.392 25.2064615,8.392 Z M32.1055385,22 L32.1055385,8.704 L29.7775385,8.704 L29.7775385,5.992 L37.5295385,5.992 L37.5295385,8.704 L35.2015385,8.704 L35.2015385,22 L32.1055385,22 Z M37.8046154,17.056 L40.8286154,17.056 L40.8286154,18.184 C40.8286154,19.216 41.0926154,19.72 41.7886154,19.72 C42.5086154,19.72 42.6766154,19 42.6766154,18.232 C42.6766154,16.72 42.3886154,16.288 40.7566154,14.92 C38.9326154,13.384 38.0206154,12.472 38.0206154,10.12 C38.0206154,7.84 38.7646154,5.728 41.8126154,5.728 C45.0286154,5.728 45.5086154,7.936 45.5086154,9.76 L45.5086154,10.672 L42.6046154,10.672 L42.6046154,9.712 C42.6046154,8.752 42.4366154,8.272 41.8366154,8.272 C41.2606154,8.272 41.0686154,8.752 41.0686154,9.664 C41.0686154,10.624 41.2606154,11.104 42.5806154,12.136 C44.9326154,13.984 45.7726154,15.04 45.7726154,17.656 C45.7726154,20.176 44.9086154,22.24 41.7406154,22.24 C38.6926154,22.24 37.8046154,20.392 37.8046154,18.016 L37.8046154,17.056 Z M5.32430769,42 L5.32430769,25.992 L11.9723077,25.992 L11.9723077,28.704 L8.39630769,28.704 L8.39630769,32.352 L11.7563077,32.352 L11.7563077,35.088 L8.39630769,35.088 L8.39630769,42 L5.32430769,42 Z M13.0393846,25.992 L16.1113846,25.992 L16.1113846,42 L13.0393846,42 L13.0393846,25.992 Z M17.7784615,42 L17.7784615,25.992 L21.7624615,25.992 C24.4504615,25.992 25.7704615,27.168 25.7704615,29.952 L25.7704615,30.528 C25.7704615,32.832 24.8584615,33.504 24.1864615,33.816 C25.1704615,34.296 25.6504615,35.04 25.6504615,37.272 C25.6504615,38.808 25.6264615,41.16 25.7464615,42 L22.7704615,42 C22.5784615,41.28 22.6024615,39.192 22.6024615,37.152 C22.6024615,35.352 22.3864615,35.04 21.2104615,35.04 L20.8504615,35.04 L20.8504615,42 L17.7784615,42 Z M20.8504615,28.416 L20.8504615,32.616 L21.2344615,32.616 C22.2664615,32.616 22.6984615,32.28 22.6984615,30.792 L22.6984615,30.024 C22.6984615,28.944 22.4824615,28.416 21.3304615,28.416 L20.8504615,28.416 Z M33.5335385,32.208 L33.5335385,34.92 L30.2455385,34.92 L30.2455385,39.288 L34.1095385,39.288 L33.7495385,42 L27.1495385,42 L27.1495385,25.992 L33.7255385,25.992 L33.7255385,28.704 L30.2455385,28.704 L30.2455385,32.208 L33.5335385,32.208 Z M34.9846154,42 L34.9846154,25.992 L38.7766154,25.992 C42.0646154,25.992 43.1926154,27.48 43.1926154,30.792 L43.1926154,36.816 C43.1926154,39.576 42.6166154,42 38.9686154,42 L34.9846154,42 Z M38.0566154,28.488 L38.0566154,39.528 L38.6566154,39.528 C39.8806154,39.528 40.0726154,38.736 40.0726154,37.488 L40.0726154,30.312 C40.0726154,29.136 39.8086154,28.488 38.6326154,28.488 L38.0566154,28.488 Z" id="SHOTSFIRED" fill="#FFFFFF" fill-rule="nonzero"></path>
    </g>
</svg>