<?xml version="1.0" encoding="UTF-8"?>
<svg width="48px" height="48px" viewBox="0 0 48 48" version="1.1" xmlns="http://www.w3.org/2000/svg" xmlns:xlink="http://www.w3.org/1999/xlink">
    <!-- Generator: Sketch 57.1 (83088) - https://sketch.com -->
    <title>stop</title>
    <desc>Created with Sketch.</desc>
    <g id="stop" stroke="none" stroke-width="1" fill="none" fill-rule="evenodd">
        <rect id="Rectangle" fill="#FF2200" x="0" y="0" width="48" height="48" rx="6"></rect>
        <path d="M4.903,27.644 L8.179,27.644 L8.179,28.866 C8.179,29.984 8.465,30.53 9.219,30.53 C9.999,30.53 10.181,29.75 10.181,28.918 C10.181,27.28 9.869,26.812 8.101,25.33 C6.125,23.666 5.137,22.678 5.137,20.13 C5.137,17.66 5.943,15.372 9.245,15.372 C12.729,15.372 13.249,17.764 13.249,19.74 L13.249,20.728 L10.103,20.728 L10.103,19.688 C10.103,18.648 9.921,18.128 9.271,18.128 C8.647,18.128 8.439,18.648 8.439,19.636 C8.439,20.676 8.647,21.196 10.077,22.314 C12.625,24.316 13.535,25.46 13.535,28.294 C13.535,31.024 12.599,33.26 9.167,33.26 C5.865,33.26 4.903,31.258 4.903,28.684 L4.903,27.644 Z M16.707,33 L16.707,18.596 L14.185,18.596 L14.185,15.658 L22.583,15.658 L22.583,18.596 L20.061,18.596 L20.061,33 L16.707,33 Z M28.017,15.398 C30.695,15.398 32.515,16.828 32.515,20.286 L32.515,28.346 C32.515,31.778 30.903,33.26 27.861,33.26 C24.975,33.26 23.493,31.752 23.493,28.372 L23.493,20.208 C23.493,16.854 25.339,15.398 28.017,15.398 Z M27.991,18.258 C27.263,18.258 26.873,18.752 26.873,19.922 L26.873,28.788 C26.873,29.854 27.237,30.426 27.991,30.426 C28.771,30.426 29.109,29.906 29.109,28.762 L29.109,19.896 C29.109,18.804 28.823,18.258 27.991,18.258 Z M34.309,33 L34.309,15.658 L38.755,15.658 C41.641,15.658 43.071,17.166 43.071,20.234 L43.071,21.3 C43.071,24.342 41.927,26.188 38.625,26.188 L37.637,26.188 L37.637,33 L34.309,33 Z M37.637,18.284 L37.637,23.484 L38.183,23.484 C39.457,23.484 39.717,22.756 39.717,21.326 L39.717,20.13 C39.717,19.012 39.457,18.284 38.339,18.284 L37.637,18.284 Z" id="STOP" fill="#FFFFFF" fill-rule="nonzero"></path>
    </g>
</svg>