<?xml version="1.0" encoding="UTF-8"?>
<svg width="48px" height="48px" viewBox="0 0 48 48" version="1.1" xmlns="http://www.w3.org/2000/svg" xmlns:xlink="http://www.w3.org/1999/xlink">
    <!-- Generator: Sketch 57.1 (83088) - https://sketch.com -->
    <title>thats_art</title>
    <desc>Created with Sketch.</desc>
    <g id="thats_art" stroke="none" stroke-width="1" fill="none" fill-rule="evenodd">
        <rect id="Rectangle" fill="#FFFFFF" x="0" y="0" width="48" height="48" rx="6"></rect>
        <path d="M11.4,30.64 L8.08,30.64 L7.44,37 L2.2,37 L5.96,10.32 L13.6,10.32 L17.48,37 L12.16,37 L11.4,30.64 Z M8.52,26.12 L10.96,26.12 C10.6,22.72 10.08,17.52 9.8,14.96 L9.6,14.96 C9.52,16.8 8.88,22.8 8.52,26.12 Z M19,37 L19,10.32 L25.64,10.32 C30.12,10.32 32.32,12.28 32.32,16.92 L32.32,17.88 C32.32,21.72 30.8,22.84 29.68,23.36 C31.32,24.16 32.12,25.4 32.12,29.12 C32.12,31.68 32.08,35.6 32.28,37 L27.32,37 C27,35.8 27.04,32.32 27.04,28.92 C27.04,25.92 26.68,25.4 24.72,25.4 L24.12,25.4 L24.12,37 L19,37 Z M24.12,14.36 L24.12,21.36 L24.76,21.36 C26.48,21.36 27.2,20.8 27.2,18.32 L27.2,17.04 C27.2,15.24 26.84,14.36 24.92,14.36 L24.12,14.36 Z M37.24,37 L37.24,14.84 L33.36,14.84 L33.36,10.32 L46.28,10.32 L46.28,14.84 L42.4,14.84 L42.4,37 L37.24,37 Z" id="ART" fill="#000000" fill-rule="nonzero"></path>
    </g>
</svg>