<?xml version="1.0" encoding="UTF-8"?>
<svg width="48px" height="48px" viewBox="0 0 48 48" version="1.1" xmlns="http://www.w3.org/2000/svg" xmlns:xlink="http://www.w3.org/1999/xlink">
    <!-- Generator: Sketch 57.1 (83088) - https://sketch.com -->
    <title>that</title>
    <desc>Created with Sketch.</desc>
    <g id="that" stroke="none" stroke-width="1" fill="none" fill-rule="evenodd">
        <rect id="Rectangle" fill="#000000" x="0" y="0" width="48" height="48" rx="6"></rect>
        <path d="M7.321,33 L7.321,18.596 L4.799,18.596 L4.799,15.658 L13.197,15.658 L13.197,18.596 L10.675,18.596 L10.675,33 L7.321,33 Z M14.393,33 L14.393,15.658 L17.721,15.658 L17.721,22.34 L19.905,22.34 L19.905,15.658 L23.259,15.658 L23.259,33 L19.905,33 L19.905,25.278 L17.721,25.278 L17.721,33 L14.393,33 Z M30.487,28.866 L28.329,28.866 L27.913,33 L24.507,33 L26.951,15.658 L31.917,15.658 L34.439,33 L30.981,33 L30.487,28.866 Z M28.615,25.928 L30.201,25.928 C29.967,23.718 29.629,20.338 29.447,18.674 L29.317,18.674 C29.265,19.87 28.849,23.77 28.615,25.928 Z M37.299,33 L37.299,18.596 L34.777,18.596 L34.777,15.658 L43.175,15.658 L43.175,18.596 L40.653,18.596 L40.653,33 L37.299,33 Z" id="THAT" fill="#FFFFFF" fill-rule="nonzero"></path>
    </g>
</svg>