<?xml version="1.0" encoding="UTF-8"?>
<svg width="48px" height="48px" viewBox="0 0 48 48" version="1.1" xmlns="http://www.w3.org/2000/svg" xmlns:xlink="http://www.w3.org/1999/xlink">
    <!-- Generator: Sketch 57.1 (83088) - https://sketch.com -->
    <title>this</title>
    <desc>Created with Sketch.</desc>
    <g id="this" stroke="none" stroke-width="1" fill="none" fill-rule="evenodd">
        <rect id="Rectangle" fill="#000000" x="0" y="0" width="48" height="48" rx="6"></rect>
        <path d="M9.323,33 L9.323,18.596 L6.801,18.596 L6.801,15.658 L15.199,15.658 L15.199,18.596 L12.677,18.596 L12.677,33 L9.323,33 Z M16.395,33 L16.395,15.658 L19.723,15.658 L19.723,22.34 L21.907,22.34 L21.907,15.658 L25.261,15.658 L25.261,33 L21.907,33 L21.907,25.278 L19.723,25.278 L19.723,33 L16.395,33 Z M27.341,15.658 L30.669,15.658 L30.669,33 L27.341,33 L27.341,15.658 Z M32.177,27.644 L35.453,27.644 L35.453,28.866 C35.453,29.984 35.739,30.53 36.493,30.53 C37.273,30.53 37.455,29.75 37.455,28.918 C37.455,27.28 37.143,26.812 35.375,25.33 C33.399,23.666 32.411,22.678 32.411,20.13 C32.411,17.66 33.217,15.372 36.519,15.372 C40.003,15.372 40.523,17.764 40.523,19.74 L40.523,20.728 L37.377,20.728 L37.377,19.688 C37.377,18.648 37.195,18.128 36.545,18.128 C35.921,18.128 35.713,18.648 35.713,19.636 C35.713,20.676 35.921,21.196 37.351,22.314 C39.899,24.316 40.809,25.46 40.809,28.294 C40.809,31.024 39.873,33.26 36.441,33.26 C33.139,33.26 32.177,31.258 32.177,28.684 L32.177,27.644 Z" id="THIS" fill="#FFFFFF" fill-rule="nonzero"></path>
    </g>
</svg>