<?xml version="1.0" encoding="UTF-8"?>
<svg width="48px" height="48px" viewBox="0 0 48 48" version="1.1" xmlns="http://www.w3.org/2000/svg" xmlns:xlink="http://www.w3.org/1999/xlink">
    <!-- Generator: Sketch 57.1 (83088) - https://sketch.com -->
    <title>wait</title>
    <desc>Created with Sketch.</desc>
    <g id="wait" stroke="none" stroke-width="1" fill="none" fill-rule="evenodd">
        <rect id="Rectangle" fill="#FFC800" x="0" y="0" width="48" height="48" rx="6"></rect>
        <path d="M10.454,33 L6.97,33 L4.994,15.658 L8.53,15.658 C8.764,18.752 9.128,24.628 9.206,27.358 L9.31,27.358 C9.674,23.978 10.09,19.246 10.454,15.658 L13.314,15.658 C13.678,19.038 14.068,23.692 14.406,27.306 L14.536,27.306 C14.692,24.082 15.004,18.518 15.238,15.658 L18.54,15.658 L16.33,33 L12.872,33 C12.534,29.958 12.092,26.604 11.806,23.016 L11.676,23.016 C11.338,26.526 10.818,29.854 10.454,33 Z M25.014,28.866 L22.856,28.866 L22.44,33 L19.034,33 L21.478,15.658 L26.444,15.658 L28.966,33 L25.508,33 L25.014,28.866 Z M23.142,25.928 L24.728,25.928 C24.494,23.718 24.156,20.338 23.974,18.674 L23.844,18.674 C23.792,19.87 23.376,23.77 23.142,25.928 Z M30.214,15.658 L33.542,15.658 L33.542,33 L30.214,33 L30.214,15.658 Z M37.26,33 L37.26,18.596 L34.738,18.596 L34.738,15.658 L43.136,15.658 L43.136,18.596 L40.614,18.596 L40.614,33 L37.26,33 Z" id="WAIT" fill="#000000" fill-rule="nonzero"></path>
    </g>
</svg>