<?xml version="1.0" encoding="UTF-8"?>
<svg width="48px" height="48px" viewBox="0 0 48 48" version="1.1" xmlns="http://www.w3.org/2000/svg" xmlns:xlink="http://www.w3.org/1999/xlink">
    <!-- Generator: Sketch 57.1 (83088) - https://sketch.com -->
    <title>want</title>
    <desc>Created with Sketch.</desc>
    <g id="want" stroke="none" stroke-width="1" fill="none" fill-rule="evenodd">
        <rect id="Rectangle" fill="#000000" x="0" y="0" width="48" height="48" rx="6"></rect>
        <path d="M4.389,16.42 L7.125,16.42 L7.989,24.916 L9.087,16.438 L11.229,16.438 L12.381,24.862 L13.263,16.42 L15.963,16.42 L14.217,31 L11.409,31 L10.167,22.198 L8.997,31 L6.153,31 L4.389,16.42 Z M19.203,16.42 L22.875,16.42 L25.593,31 L22.623,31 L22.137,27.922 L19.995,27.922 L19.491,31 L16.449,31 L19.203,16.42 Z M21.831,25.996 L21.057,20.308 L20.283,25.996 L21.831,25.996 Z M27.069,16.42 L29.337,16.42 L32.325,23.44 L32.325,16.42 L34.989,16.42 L34.989,31 L32.811,31 L29.823,23.44 L29.823,31 L27.069,31 L27.069,16.42 Z M38.481,18.814 L36.285,18.814 L36.285,16.42 L43.899,16.42 L43.899,18.814 L41.721,18.814 L41.721,31 L38.481,31 L38.481,18.814 Z" id="WANT" fill="#FFFFFF" fill-rule="nonzero"></path>
    </g>
</svg>