<?xml version="1.0" encoding="UTF-8"?>
<svg width="48px" height="48px" viewBox="0 0 48 48" version="1.1" xmlns="http://www.w3.org/2000/svg" xmlns:xlink="http://www.w3.org/1999/xlink">
    <!-- Generator: Sketch 57.1 (83088) - https://sketch.com -->
    <title>what</title>
    <desc>Created with Sketch.</desc>
    <g id="what" stroke="none" stroke-width="1" fill="none" fill-rule="evenodd">
        <rect id="Rectangle" fill="#000000" x="0" y="0" width="48" height="48" rx="6"></rect>
        <path d="M7.698,33 L4.214,33 L2.238,15.658 L5.774,15.658 C6.008,18.752 6.372,24.628 6.45,27.358 L6.554,27.358 C6.918,23.978 7.334,19.246 7.698,15.658 L10.558,15.658 C10.922,19.038 11.312,23.692 11.65,27.306 L11.78,27.306 C11.936,24.082 12.248,18.518 12.482,15.658 L15.784,15.658 L13.574,33 L10.116,33 C9.778,29.958 9.336,26.604 9.05,23.016 L8.92,23.016 C8.582,26.526 8.062,29.854 7.698,33 Z M17.11,33 L17.11,15.658 L20.438,15.658 L20.438,22.34 L22.622,22.34 L22.622,15.658 L25.976,15.658 L25.976,33 L22.622,33 L22.622,25.278 L20.438,25.278 L20.438,33 L17.11,33 Z M33.204,28.866 L31.046,28.866 L30.63,33 L27.224,33 L29.668,15.658 L34.634,15.658 L37.156,33 L33.698,33 L33.204,28.866 Z M31.332,25.928 L32.918,25.928 C32.684,23.718 32.346,20.338 32.164,18.674 L32.034,18.674 C31.982,19.87 31.566,23.77 31.332,25.928 Z M40.016,33 L40.016,18.596 L37.494,18.596 L37.494,15.658 L45.892,15.658 L45.892,18.596 L43.37,18.596 L43.37,33 L40.016,33 Z" id="WHAT" fill="#FFFFFF" fill-rule="nonzero"></path>
    </g>
</svg>