<?xml version="1.0" encoding="UTF-8"?>
<svg width="48px" height="48px" viewBox="0 0 48 48" version="1.1" xmlns="http://www.w3.org/2000/svg" xmlns:xlink="http://www.w3.org/1999/xlink">
    <!-- Generator: Sketch 57.1 (83088) - https://sketch.com -->
    <title>why</title>
    <desc>Created with Sketch.</desc>
    <g id="why" stroke="none" stroke-width="1" fill="none" fill-rule="evenodd">
        <rect id="Rectangle" fill="#000000" x="0" y="0" width="48" height="48" rx="6"></rect>
        <path d="M9.465,35 L4.909,35 L2.325,12.322 L6.949,12.322 C7.255,16.368 7.731,24.052 7.833,27.622 L7.969,27.622 C8.445,23.202 8.989,17.014 9.465,12.322 L13.205,12.322 C13.681,16.742 14.191,22.828 14.633,27.554 L14.803,27.554 C15.007,23.338 15.415,16.062 15.721,12.322 L20.039,12.322 L17.149,35 L12.627,35 C12.185,31.022 11.607,26.636 11.233,21.944 L11.063,21.944 C10.621,26.534 9.941,30.886 9.465,35 Z M21.433,35 L21.433,12.322 L25.785,12.322 L25.785,21.06 L28.641,21.06 L28.641,12.322 L33.027,12.322 L33.027,35 L28.641,35 L28.641,24.902 L25.785,24.902 L25.785,35 L21.433,35 Z M42.377,35 L38.025,35 L38.025,27.724 C38.025,27.35 37.957,26.942 37.855,26.568 L33.877,12.322 L38.637,12.322 C39.249,15.586 39.963,19.36 40.235,22.216 L40.371,22.216 C40.745,19.496 41.459,15.654 42.071,12.322 L46.559,12.322 L42.479,26.908 C42.411,27.214 42.377,27.418 42.377,27.894 L42.377,35 Z" id="WHY" fill="#FFFFFF" fill-rule="nonzero"></path>
    </g>
</svg>