<?xml version="1.0" encoding="UTF-8"?>
<svg width="48px" height="48px" viewBox="0 0 48 48" version="1.1" xmlns="http://www.w3.org/2000/svg" xmlns:xlink="http://www.w3.org/1999/xlink">
    <!-- Generator: Sketch 57.1 (83088) - https://sketch.com -->
    <title>yas</title>
    <desc>Created with Sketch.</desc>
    <g id="yas" stroke="none" stroke-width="1" fill="none" fill-rule="evenodd">
        <rect id="Rectangle" fill="#8200EA" x="0" y="0" width="48" height="48" rx="6"></rect>
        <path d="M12.38,37 L7.26,37 L7.26,28.44 C7.26,28 7.18,27.52 7.06,27.08 L2.38,10.32 L7.98,10.32 C8.7,14.16 9.54,18.6 9.86,21.96 L10.02,21.96 C10.46,18.76 11.3,14.24 12.02,10.32 L17.3,10.32 L12.5,27.48 C12.42,27.84 12.38,28.08 12.38,28.64 L12.38,37 Z M24.66,30.64 L21.34,30.64 L20.7,37 L15.46,37 L19.22,10.32 L26.86,10.32 L30.74,37 L25.42,37 L24.66,30.64 Z M21.78,26.12 L24.22,26.12 C23.86,22.72 23.34,17.52 23.06,14.96 L22.86,14.96 C22.78,16.8 22.14,22.8 21.78,26.12 Z M31.74,28.76 L36.78,28.76 L36.78,30.64 C36.78,32.36 37.22,33.2 38.38,33.2 C39.58,33.2 39.86,32 39.86,30.72 C39.86,28.2 39.38,27.48 36.66,25.2 C33.62,22.64 32.1,21.12 32.1,17.2 C32.1,13.4 33.34,9.88 38.42,9.88 C43.78,9.88 44.58,13.56 44.58,16.6 L44.58,18.12 L39.74,18.12 L39.74,16.52 C39.74,14.92 39.46,14.12 38.46,14.12 C37.5,14.12 37.18,14.92 37.18,16.44 C37.18,18.04 37.5,18.84 39.7,20.56 C43.62,23.64 45.02,25.4 45.02,29.76 C45.02,33.96 43.58,37.4 38.3,37.4 C33.22,37.4 31.74,34.32 31.74,30.36 L31.74,28.76 Z" id="YAS" fill="#FFFFFF" fill-rule="nonzero"></path>
    </g>
</svg>