<?xml version="1.0" encoding="UTF-8"?>
<svg width="48px" height="48px" viewBox="0 0 48 48" version="1.1" xmlns="http://www.w3.org/2000/svg" xmlns:xlink="http://www.w3.org/1999/xlink">
    <!-- Generator: Sketch 57.1 (83088) - https://sketch.com -->
    <title>yes</title>
    <desc>Created with Sketch.</desc>
    <g id="yes" stroke="none" stroke-width="1" fill="none" fill-rule="evenodd">
        <rect id="Rectangle" fill="#008000" x="0" y="0" width="48" height="48" rx="6"></rect>
        <path d="M12.82,37 L7.7,37 L7.7,28.44 C7.7,28 7.62,27.52 7.5,27.08 L2.82,10.32 L8.42,10.32 C9.14,14.16 9.98,18.6 10.3,21.96 L10.46,21.96 C10.9,18.76 11.74,14.24 12.46,10.32 L17.74,10.32 L12.94,27.48 C12.86,27.84 12.82,28.08 12.82,28.64 L12.82,37 Z M29.34,20.68 L29.34,25.2 L23.86,25.2 L23.86,32.48 L30.3,32.48 L29.7,37 L18.7,37 L18.7,10.32 L29.66,10.32 L29.66,14.84 L23.86,14.84 L23.86,20.68 L29.34,20.68 Z M31.3,28.76 L36.34,28.76 L36.34,30.64 C36.34,32.36 36.78,33.2 37.94,33.2 C39.14,33.2 39.42,32 39.42,30.72 C39.42,28.2 38.94,27.48 36.22,25.2 C33.18,22.64 31.66,21.12 31.66,17.2 C31.66,13.4 32.9,9.88 37.98,9.88 C43.34,9.88 44.14,13.56 44.14,16.6 L44.14,18.12 L39.3,18.12 L39.3,16.52 C39.3,14.92 39.02,14.12 38.02,14.12 C37.06,14.12 36.74,14.92 36.74,16.44 C36.74,18.04 37.06,18.84 39.26,20.56 C43.18,23.64 44.58,25.4 44.58,29.76 C44.58,33.96 43.14,37.4 37.86,37.4 C32.78,37.4 31.3,34.32 31.3,30.36 L31.3,28.76 Z" id="YES" fill="#FFFFFF" fill-rule="nonzero"></path>
    </g>
</svg>